<svg version="1.1" id="Uploaded to svgrepo.com" xmlns="http://www.w3.org/2000/svg" xmlns:xlink="http://www.w3.org/1999/xlink" x="0px" y="0px"
	 width="32px" height="32px" viewBox="0 0 32 32" style="enable-background:new 0 0 32 32;" xml:space="preserve">
<style type="text/css">
	.feather_een{fill:#0B1719;}
</style>
<path class="feather_een" d="M27.257,4.097l-16.331,6.534C10.779,10.262,10.422,10,10,10H5c-0.552,0-1,0.448-1,1v0H3
	c-1.105,0-2,0.895-2,2v4c0,1.105,0.895,2,2,2l1,0c0,0.552,0.448,1,1,1v2c0,1.657,1.343,3,3,3h4c1.657,0,3-1.343,3-3v-1l12.257,4.903
	C28.571,26.428,30,25.461,30,24.046V5.954C30,4.539,28.571,3.572,27.257,4.097z M4,18H3c-0.552,0-1-0.448-1-1v-4
	c0-0.552,0.448-1,1-1h1V18z M10.925,19.371L12,19.8V22H8l0-2h2C10.421,20,10.777,19.739,10.925,19.371z M5,11h5v8l-5,0V11z M12,24H8
	c-1.105,0-2-0.895-2-2v-2h1l0,2c0,0.552,0.448,1,1,1h4c0.552,0,1-0.448,1-1v-1.8l1,0.4V22C14,23.105,13.104,24,12,24z
	 M27.629,24.974L11,18.323v-6.646l16.629-6.651C28.285,4.763,29,5.247,29,5.954v18.092C29,24.753,28.285,25.237,27.629,24.974z"/>
</svg>