<?xml version="1.0" encoding="iso-8859-1"?>
<!-- Generator: Adobe Illustrator 17.1.0, SVG Export Plug-In . SVG Version: 6.00 Build 0)  -->
<!DOCTYPE svg PUBLIC "-//W3C//DTD SVG 1.1//EN" "http://www.w3.org/Graphics/SVG/1.1/DTD/svg11.dtd">
<svg version="1.1" id="Capa_1" xmlns="http://www.w3.org/2000/svg" xmlns:xlink="http://www.w3.org/1999/xlink" x="0px" y="0px"
	 viewBox="0 0 346.586 346.586" style="enable-background:new 0 0 346.586 346.586;" xml:space="preserve">
<path id="XMLID_59_" d="M335.586,211.609h-40.317l0.003-30.667c0-4.105-2.285-7.868-5.927-9.761
	c-3.641-1.893-8.034-1.602-11.395,0.758l-90.459,63.525c-2.933,2.06-4.679,5.418-4.679,9.002s1.746,6.942,4.679,9.002l90.459,63.525
	c1.887,1.325,4.1,1.998,6.322,1.998c1.734,0,3.476-0.41,5.071-1.239c3.643-1.893,5.928-5.656,5.928-9.761v-30.668l40.313,0.002
	c0.001,0,0.001,0,0.001,0c2.917,0,5.715-1.159,7.778-3.222c2.063-2.063,3.222-4.861,3.222-7.778v-43.716
	C346.586,216.534,341.661,211.609,335.586,211.609z M324.586,255.325l-40.314-0.002c-2.917,0-5.715,1.159-7.778,3.222
	c-2.063,2.063-3.222,4.861-3.222,7.778v20.502l-60.318-42.359l60.316-42.358l-0.002,20.5c0,2.917,1.158,5.716,3.222,7.779
	c2.063,2.063,4.86,3.222,7.778,3.222h40.318V255.325z M153.737,255.323H22V61.072l35.804,52.075
	c2.053,2.984,5.442,4.768,9.064,4.768h161.536c3.622,0,7.012-1.783,9.064-4.768l35.803-52.072v78.316c0,6.075,4.925,11,11,11
	s11-4.925,11-11V38.596c0-6.075-4.925-11-11-11h-8.737c-0.098-0.001-0.195-0.001-0.293,0H20.031c-0.096-0.001-0.193-0.001-0.291,0
	H11c-6.075,0-11,4.925-11,11v227.727c0,6.075,4.925,11,11,11h142.737c6.075,0,11-4.925,11-11S159.813,255.323,153.737,255.323z
	 M254.466,49.596l-31.848,46.318H72.654L40.808,49.596H254.466z"/>
<g>
</g>
<g>
</g>
<g>
</g>
<g>
</g>
<g>
</g>
<g>
</g>
<g>
</g>
<g>
</g>
<g>
</g>
<g>
</g>
<g>
</g>
<g>
</g>
<g>
</g>
<g>
</g>
<g>
</g>
</svg>
