<svg width="70" height="86" viewBox="0 0 70 86" fill="none" xmlns="http://www.w3.org/2000/svg">
<g clip-path="url(#clip0_83_10)">
<path d="M0.932053 21.3409L32.7511 53.1591C33.3476 53.7558 34.157 54.0909 35.0008 54.0909C35.8449 54.0909 36.6541 53.7556 37.2508 53.1589L69.0681 21.3407C70.3107 20.0981 70.3107 18.0836 69.0681 16.841C67.8257 15.5986 65.811 15.5984 64.5684 16.841L35.0008 46.4092L5.43178 16.841C4.81047 16.2197 3.99614 15.9091 3.18181 15.9091C2.36748 15.9091 1.55315 16.2197 0.931839 16.8412C-0.310555 18.0838 -0.310555 20.0983 0.932053 21.3409Z" fill="#3A7DBD"/>
</g>
<g clip-path="url(#clip1_83_10)">
<path d="M0.932053 37.3409L32.7511 69.1591C33.3476 69.7558 34.157 70.0909 35.0008 70.0909C35.8449 70.0909 36.6541 69.7556 37.2508 69.1589L69.0681 37.3407C70.3107 36.0981 70.3107 34.0836 69.0681 32.841C67.8257 31.5986 65.811 31.5984 64.5684 32.841L35.0008 62.4092L5.43178 32.841C4.81047 32.2197 3.99614 31.9091 3.18181 31.9091C2.36748 31.9091 1.55315 32.2197 0.931839 32.8412C-0.310555 34.0838 -0.310555 36.0983 0.932053 37.3409Z" fill="#3A7DBD"/>
</g>
<defs>
<clipPath id="clip0_83_10">
<rect width="70" height="70" fill="white" transform="translate(70 70) rotate(-180)"/>
</clipPath>
<clipPath id="clip1_83_10">
<rect width="70" height="70" fill="white" transform="translate(70 86) rotate(-180)"/>
</clipPath>
</defs>
</svg>
