<?xml version="1.0" encoding="iso-8859-1"?>
<!-- Generator: Adobe Illustrator 19.0.0, SVG Export Plug-In . SVG Version: 6.00 Build 0)  -->
<svg version="1.1" id="Layer_1" xmlns="http://www.w3.org/2000/svg" xmlns:xlink="http://www.w3.org/1999/xlink" x="0px" y="0px"
	 viewBox="0 0 512 512" style="enable-background:new 0 0 512 512;" xml:space="preserve">
<g>
	<g>
		<path d="M461.913,72.348H50.087c-25.934,0-47.304,19.812-49.864,45.078l221.496,221.496c17.809,17.809,49.753,18.81,69.677-1.113
			l220.383-220.383C509.217,92.16,487.847,72.348,461.913,72.348z"/>
	</g>
</g>
<g>
	<g>
		<path d="M315,361.413c-15.783,15.793-36.848,24.489-59.304,24.489c-21.75,0-42.739-8.51-57.587-23.37L0,164.433v225.132
			c0,27.604,22.484,50.087,50.087,50.087h411.826c27.603,0,50.087-22.483,50.087-50.087V164.431L315,361.413z"/>
	</g>
</g>
</svg>
