<?xml version="1.0" encoding="iso-8859-1"?>
<!-- Generator: Adobe Illustrator 19.1.0, SVG Export Plug-In . SVG Version: 6.00 Build 0)  -->
<svg version="1.1" id="Capa_1" xmlns="http://www.w3.org/2000/svg" xmlns:xlink="http://www.w3.org/1999/xlink" x="0px" y="0px"
	 viewBox="0 0 512 512" style="enable-background:new 0 0 512 512;" xml:space="preserve">
<g>
	<g>
		<polygon style="fill:#FFD200;" points="392,512 256,80 120,512 		"/>
	</g>
	<g>
		<polygon style="fill:#FFFFFF;" points="288,512 224,512 256,80 		"/>
	</g>
	<g>
		<polygon style="fill:#FFEF43;" points="256,82.81 168,512 224,512 		"/>
	</g>
	<g>
		<polygon style="fill:#FFEF43;" points="256,82.81 344,512 288,512 		"/>
	</g>
	<g>
		<circle style="fill:#FFFFFF;" cx="256" cy="208" r="32"/>
	</g>
	<g>
		<path style="fill:#D8DCE1;" d="M503.844,158.43c-0.049-0.242-0.191-0.435-0.26-0.667c-0.121-0.408-0.271-0.781-0.454-1.165
			c-0.25-0.523-0.544-0.993-0.895-1.443c-0.241-0.313-0.477-0.605-0.767-0.882c-0.473-0.452-1.004-0.804-1.572-1.128
			c-0.225-0.128-0.375-0.333-0.615-0.441L343.732,82.706C340.971,36.651,302.736,0,256,0s-84.971,36.651-87.732,82.706
			L12.719,152.703c-0.24,0.108-0.391,0.313-0.615,0.441c-0.569,0.325-1.1,0.676-1.573,1.128c-0.29,0.276-0.524,0.569-0.766,0.882
			c-0.351,0.45-0.645,0.92-0.895,1.443c-0.184,0.384-0.333,0.757-0.454,1.165c-0.069,0.232-0.212,0.426-0.26,0.667l-8,40
			c-0.469,2.352,0.141,4.789,1.656,6.641C3.336,206.926,5.602,208,8,208h496c2.398,0,4.664-1.074,6.188-2.93
			c1.516-1.852,2.125-4.289,1.656-6.641L503.844,158.43z"/>
	</g>
	<g>
		<path style="fill:#B9BBC1;" d="M256,0c-46.736,0-84.971,36.651-87.732,82.706L12.719,152.703c-0.24,0.108-0.391,0.313-0.615,0.441
			c-0.569,0.325-1.1,0.676-1.573,1.128c-0.29,0.276-0.524,0.569-0.766,0.882c-0.351,0.45-0.645,0.92-0.895,1.443
			c-0.184,0.384-0.333,0.757-0.454,1.165c-0.069,0.232-0.212,0.426-0.26,0.667l-8,40c-0.469,2.352,0.141,4.789,1.656,6.641
			C3.336,206.926,5.602,208,8,208h248V0z"/>
	</g>
	<g>
		<path style="fill:#5C546A;" d="M256,0c-46.736,0-84.971,36.651-87.732,82.706h175.464C340.971,36.651,302.736,0,256,0z"/>
	</g>
	<g>
		<path style="fill:#B9BBC1;" d="M0.156,198.43c-0.469,2.352,0.141,4.789,1.656,6.641C3.336,206.926,5.602,208,8,208h496
			c2.398,0,4.664-1.074,6.188-2.93c1.516-1.852,2.125-4.289,1.656-6.641L504.158,160H7.842L0.156,198.43z"/>
	</g>
	<g>
		<path style="fill:#8B8996;" d="M256,160H7.842l-7.686,38.43c-0.469,2.352,0.141,4.789,1.656,6.641C3.336,206.926,5.602,208,8,208
			h248V160z"/>
	</g>
	<g>
		<path style="fill:#8B8996;" d="M343.732,82.706C340.971,36.651,302.736,0,256,0v82.706H343.732z"/>
	</g>
</g>
<g>
</g>
<g>
</g>
<g>
</g>
<g>
</g>
<g>
</g>
<g>
</g>
<g>
</g>
<g>
</g>
<g>
</g>
<g>
</g>
<g>
</g>
<g>
</g>
<g>
</g>
<g>
</g>
<g>
</g>
</svg>
